<svg width="16" height="16" viewBox="0 0 16 16" fill="none" xmlns="http://www.w3.org/2000/svg">
<path fill-rule="evenodd" clip-rule="evenodd" d="M2.4 1.6C1.95817 1.6 1.6 1.95817 1.6 2.4V13.6C1.6 14.0418 1.95817 14.4 2.4 14.4H13.6C14.0418 14.4 14.4 14.0418 14.4 13.6V2.4C14.4 1.95817 14.0418 1.6 13.6 1.6H2.4ZM0 2.4C0 1.07452 1.07452 0 2.4 0H13.6C14.9255 0 16 1.07452 16 2.4V13.6C16 14.9255 14.9255 16 13.6 16H2.4C1.07452 16 0 14.9255 0 13.6V2.4ZM12.5657 5.03431C12.8781 5.34673 12.8781 5.85327 12.5657 6.16569L10.1657 8.56569C10.0157 8.71571 9.81217 8.8 9.6 8.8H6.73137L4.56569 10.9657C4.25327 11.2781 3.74673 11.2781 3.43431 10.9657C3.1219 10.6533 3.1219 10.1467 3.43431 9.83432L5.83431 7.43431C5.98434 7.28429 6.18783 7.2 6.4 7.2H9.26863L11.4343 5.03431C11.7467 4.7219 12.2533 4.7219 12.5657 5.03431Z" fill="white"/>
</svg>
