<svg width="16" height="16" viewBox="0 0 16 16" fill="none" xmlns="http://www.w3.org/2000/svg">
<path d="M11.7567 5.81818L16 16H14.3334L13.4687 13.8182H9.19736L8.33336 16H6.66669L10.91 5.81818H11.7567ZM11.3334 8.42546L9.77336 12.3636H12.8934L11.3334 8.42546ZM5.33309 0V1.45455H9.33309V2.90909H8.47642C8.03109 4.91636 7.12976 6.58982 5.78242 7.92C6.49442 8.39055 7.29776 8.79636 8.21109 9.12873L7.78909 10.5076C6.60242 10.0764 5.56509 9.52655 4.66776 8.86764C3.76909 9.52655 2.73042 10.0764 1.54442 10.5076L1.12242 9.12873C2.03709 8.79564 2.85042 8.39418 3.56376 7.92364C2.55376 6.92582 1.78642 5.74182 1.28042 4.36364H2.73309C3.19242 5.40291 3.84176 6.29527 4.67176 7.056C5.86576 5.96145 6.67109 4.58545 7.10109 2.90909H-0.000244141V1.45455H3.99976V0H5.33309Z" fill="white"/>
</svg>
